<svg width="84" height="85" viewBox="0 0 84 85" fill="none" xmlns="http://www.w3.org/2000/svg">
<path d="M25.632 5.16V12.648H12.096V18.6H22.08V25.752H12.096V39H2.688V5.16H25.632ZM28.0583 25.512C28.0583 22.728 28.5543 20.296 29.5463 18.216C30.5703 16.136 31.9463 14.536 33.6743 13.416C35.4343 12.296 37.3863 11.736 39.5303 11.736C41.3863 11.736 42.9863 12.104 44.3303 12.84C45.6743 13.576 46.7143 14.568 47.4503 15.816V12.072H56.8583V39H47.4503V35.256C46.7143 36.504 45.6583 37.496 44.2823 38.232C42.9383 38.968 41.3543 39.336 39.5303 39.336C37.3863 39.336 35.4343 38.776 33.6743 37.656C31.9463 36.536 30.5703 34.936 29.5463 32.856C28.5543 30.744 28.0583 28.296 28.0583 25.512ZM47.4503 25.512C47.4503 23.784 46.9703 22.424 46.0103 21.432C45.0823 20.44 43.9303 19.944 42.5543 19.944C41.1463 19.944 39.9783 20.44 39.0503 21.432C38.1223 22.392 37.6583 23.752 37.6583 25.512C37.6583 27.24 38.1223 28.616 39.0503 29.64C39.9783 30.632 41.1463 31.128 42.5543 31.128C43.9303 31.128 45.0823 30.632 46.0103 29.64C46.9703 28.648 47.4503 27.272 47.4503 25.512ZM71.1473 31.176H82.6193V39H60.7793V31.56L71.4833 19.896H60.8753V12.072H82.2353V19.512L71.1473 31.176ZM18.072 79.86H9.072L7.704 84H0.288L9.54 58.62H17.676L26.892 84H19.44L18.072 79.86ZM16.308 74.46L13.572 66.252L10.872 74.46H16.308ZM36.9678 63.804V84H29.8758V63.804H36.9678ZM37.8318 58.908L28.8318 62.436V57.648L37.8318 53.58V58.908ZM54.9203 48.432L53.8163 71.328H45.8003L44.6963 48.432H54.9203ZM49.8323 84.384C48.1683 84.384 46.8243 83.936 45.8003 83.04C44.8083 82.112 44.3123 80.944 44.3123 79.536C44.3123 78.128 44.8083 76.96 45.8003 76.032C46.8243 75.104 48.1683 74.64 49.8323 74.64C51.4643 74.64 52.7763 75.104 53.7682 76.032C54.7923 76.96 55.3043 78.128 55.3043 79.536C55.3043 80.912 54.7923 82.064 53.7682 82.992C52.7763 83.92 51.4643 84.384 49.8323 84.384Z" fill="#321583"/>
</svg>
