<svg width="83" height="80" viewBox="0 0 83 80" fill="none" xmlns="http://www.w3.org/2000/svg">
<path d="M25.632 0.159998V7.648H12.096V13.6H22.08V20.752H12.096V34H2.688V0.159998H25.632ZM28.0583 20.512C28.0583 17.728 28.5543 15.296 29.5463 13.216C30.5703 11.136 31.9463 9.536 33.6743 8.416C35.4343 7.296 37.3863 6.736 39.5303 6.736C41.3863 6.736 42.9863 7.104 44.3303 7.84C45.6743 8.576 46.7143 9.568 47.4503 10.816V7.072H56.8583V34H47.4503V30.256C46.7143 31.504 45.6583 32.496 44.2823 33.232C42.9383 33.968 41.3543 34.336 39.5303 34.336C37.3863 34.336 35.4343 33.776 33.6743 32.656C31.9463 31.536 30.5703 29.936 29.5463 27.856C28.5543 25.744 28.0583 23.296 28.0583 20.512ZM47.4503 20.512C47.4503 18.784 46.9703 17.424 46.0103 16.432C45.0823 15.44 43.9303 14.944 42.5543 14.944C41.1463 14.944 39.9783 15.44 39.0503 16.432C38.1223 17.392 37.6583 18.752 37.6583 20.512C37.6583 22.24 38.1223 23.616 39.0503 24.64C39.9783 25.632 41.1463 26.128 42.5543 26.128C43.9303 26.128 45.0823 25.632 46.0103 24.64C46.9703 23.648 47.4503 22.272 47.4503 20.512ZM71.1473 26.176H82.6193V34H60.7793V26.56L71.4833 14.896H60.8753V7.072H82.2353V14.512L71.1473 26.176ZM18.072 74.86H9.072L7.704 79H0.288L9.54 53.62H17.676L26.892 79H19.44L18.072 74.86ZM16.308 69.46L13.572 61.252L10.872 69.46H16.308ZM36.9678 58.804V79H29.8758V58.804H36.9678ZM37.8318 53.908L28.8318 57.436V52.648L37.8318 48.58V53.908Z" fill="#D9EC05"/>
<path d="M54.9203 43.432L53.8163 66.328H45.8003L44.6963 43.432H54.9203ZM49.8323 79.384C48.1683 79.384 46.8243 78.936 45.8003 78.04C44.8083 77.112 44.3123 75.944 44.3123 74.536C44.3123 73.128 44.8083 71.96 45.8003 71.032C46.8243 70.104 48.1683 69.64 49.8323 69.64C51.4643 69.64 52.7763 70.104 53.7682 71.032C54.7923 71.96 55.3043 73.128 55.3043 74.536C55.3043 75.912 54.7923 77.064 53.7682 77.992C52.7763 78.92 51.4643 79.384 49.8323 79.384Z" fill="#5D7184"/>
</svg>
