<svg width="432" height="393" viewBox="0 0 432 393" fill="none" xmlns="http://www.w3.org/2000/svg">
<path d="M63.2647 359.876C147.613 403.946 284.387 403.946 368.735 359.876C453.083 315.806 453.093 244.359 368.735 200.289C284.377 156.219 147.613 156.219 63.2647 200.289C-21.0832 244.359 -21.0933 315.806 63.2647 359.876Z" fill="#F5F5F5"/>
<path d="M281.919 348.73C307.356 348.73 327.976 338.903 327.976 326.781C327.976 314.658 307.356 304.831 281.919 304.831C256.483 304.831 235.863 314.658 235.863 326.781C235.863 338.903 256.483 348.73 281.919 348.73Z" fill="#EBEBEB"/>
<path d="M363.509 298.671C383.133 298.671 399.042 291.09 399.042 281.737C399.042 272.385 383.133 264.803 363.509 264.803C343.884 264.803 327.976 272.385 327.976 281.737C327.976 291.09 343.884 298.671 363.509 298.671Z" fill="#EBEBEB"/>
<path d="M110.254 276.992C108.248 266.399 100.904 251.301 91.9458 242.884C83.3285 234.798 70.5378 231.979 65.4416 235.711C60.3455 239.443 63.6861 247.509 73.5775 257.34C84.743 268.425 106.181 299.183 110.254 316.608V276.992Z" fill="#F0FC66"/>
<g opacity="0.2">
<path opacity="0.2" d="M110.254 276.992C108.248 266.399 100.904 251.301 91.9458 242.884C83.3285 234.798 70.5378 231.979 65.4416 235.711C60.3455 239.443 63.6861 247.509 73.5775 257.34C84.743 268.425 106.181 299.183 110.254 316.608V276.992Z" fill="black"/>
</g>
<path d="M110.254 302.483C110.128 302.481 110.008 302.433 109.915 302.348C109.823 302.263 109.765 302.147 109.752 302.022C107.224 275.337 88.5651 245.342 70.6281 239.092C70.5029 239.046 70.4003 238.954 70.3422 238.834C70.2842 238.714 70.2752 238.576 70.3171 238.45C70.3626 238.325 70.4551 238.222 70.575 238.164C70.6949 238.106 70.8327 238.097 70.9592 238.139C89.5582 244.609 108.167 274.424 110.776 301.932C110.787 302.064 110.746 302.196 110.662 302.299C110.578 302.402 110.456 302.468 110.324 302.483H110.254Z" fill="white"/>
<path d="M110.254 329.419C110.254 329.419 106.783 332.188 95.2062 331.104C83.6294 330.021 77.6605 321.744 77.6605 318.193C77.6605 314.642 88.3043 314.03 90.6116 305.222C88.2646 307.737 85.1423 309.394 81.7434 309.927C75.7243 311.061 70.889 309.134 69.5146 298.17C72.4812 298.603 75.5077 298.353 78.3627 297.437C83.1278 295.902 84.2614 293.284 83.0175 292.722C81.7735 292.16 75.1324 292.722 70.8789 291.107C66.6254 289.492 69.8757 267.342 72.6646 265.767C75.4535 264.192 88.6454 267.903 91.2135 269.89C93.5008 271.655 96.711 274.715 95.2263 281.186C96.985 279.541 98.3558 277.527 99.239 275.287C100.483 272.277 101.386 272.98 103.252 274.133C104.372 274.765 105.345 275.629 106.104 276.667C106.864 277.705 107.393 278.893 107.656 280.152C108.107 282.961 107.375 292.652 103.422 295.802C103.422 295.802 107.214 296.284 110.314 289.883C110.314 289.883 116.333 292.311 117.698 296.243C119.062 300.176 120.547 319.427 110.254 329.419Z" fill="#F0FC66"/>
<path d="M111.277 331.606C111.155 331.605 111.037 331.559 110.944 331.478C110.852 331.397 110.793 331.286 110.776 331.164C108.127 309.485 91.6449 281.005 75.4836 270.311C75.3718 270.237 75.2942 270.121 75.2679 269.989C75.2416 269.857 75.2686 269.721 75.3431 269.609C75.4176 269.497 75.5334 269.419 75.6651 269.393C75.7968 269.367 75.9336 269.394 76.0453 269.468C92.4073 280.353 109.151 309.124 111.769 331.044C111.786 331.176 111.75 331.309 111.669 331.414C111.588 331.519 111.469 331.588 111.337 331.606H111.277Z" fill="white"/>
<path d="M112.29 334.635C111.692 334.221 111.199 333.672 110.85 333.033C110.502 332.393 110.308 331.681 110.284 330.954V91.2823C110.325 90.5281 110.544 89.7942 110.922 89.1405C111.3 88.4867 111.827 87.9316 112.461 87.5203L262.939 0.624236C263.568 0.22973 264.292 0.0141436 265.035 0.000672461C265.777 -0.0127987 266.509 0.176353 267.152 0.547779C267.794 0.919205 268.324 1.45885 268.683 2.10866C269.042 2.75847 269.217 3.49386 269.189 4.23571L116.504 334.555C115.857 334.899 115.139 335.086 114.407 335.099C113.675 335.113 112.95 334.954 112.29 334.635V334.635Z" fill="#E0E0E0"/>
<path d="M114.327 95.8367L175.451 55.8397L171.378 53.4822L112.431 87.5203C111.797 87.9316 111.27 88.4867 110.892 89.1405C110.513 89.7942 110.295 90.5281 110.254 91.2823V93.4793L114.327 95.8367Z" fill="#37474F"/>
<path opacity="0.2" d="M114.327 95.8367L175.451 55.8397L171.378 53.4822L112.431 87.5203C111.797 87.9316 111.27 88.4867 110.892 89.1405C110.513 89.7942 110.295 90.5281 110.254 91.2823V93.4793L114.327 95.8367Z" fill="#37474F"/>
<path d="M134.742 102.889L110.886 89.1655C110.497 89.8126 110.28 90.5479 110.254 91.3023V330.934C110.228 331.675 110.404 332.409 110.764 333.057C111.124 333.705 111.653 334.244 112.296 334.614C112.938 334.984 113.669 335.172 114.411 335.158C115.152 335.145 115.876 334.929 116.504 334.535L134.742 324.052V102.889Z" fill="#263238"/>
<path opacity="0.4" d="M134.742 102.889L110.886 89.1655C110.497 89.8126 110.28 90.5479 110.254 91.3023V330.934C110.228 331.675 110.404 332.409 110.764 333.057C111.124 333.705 111.653 334.244 112.296 334.614C112.938 334.984 113.669 335.172 114.411 335.158C115.152 335.145 115.876 334.929 116.504 334.535L134.742 324.052V102.889Z" fill="#263238"/>
<path d="M116.504 334.555L266.982 247.659C267.615 247.248 268.143 246.693 268.521 246.039C268.899 245.385 269.118 244.651 269.159 243.897V4.23564C269.159 2.85124 268.156 2.28946 266.982 2.98166L116.504 89.8777C115.87 90.289 115.343 90.8442 114.965 91.4979C114.586 92.1516 114.368 92.8855 114.327 93.6397V333.301C114.327 334.685 115.3 335.247 116.504 334.555Z" fill="#455A64"/>
<path opacity="0.1" d="M116.504 334.555L266.982 247.659C267.615 247.248 268.143 246.693 268.521 246.039C268.899 245.385 269.118 244.651 269.159 243.897V4.23564C269.159 2.85124 268.156 2.28946 266.982 2.98166L116.504 89.8777C115.87 90.289 115.343 90.8442 114.965 91.4979C114.586 92.1516 114.368 92.8855 114.327 93.6397V333.301C114.327 334.685 115.3 335.247 116.504 334.555Z" fill="#455A64"/>
<path d="M126.827 148.996L162.941 128.129C165.339 126.745 167.285 127.728 167.285 130.326C167.178 131.785 166.729 133.198 165.974 134.451C165.22 135.704 164.181 136.762 162.941 137.539L126.827 158.406C124.419 159.79 122.483 158.807 122.483 156.209C122.588 154.749 123.036 153.335 123.791 152.082C124.545 150.828 125.586 149.771 126.827 148.996V148.996Z" fill="#F0FC66"/>
<path d="M126.827 163.803L150.733 149.999C153.13 148.614 155.076 149.597 155.076 152.196C154.969 153.655 154.52 155.068 153.766 156.321C153.011 157.574 151.972 158.632 150.733 159.409L126.827 173.212C124.419 174.597 122.483 173.614 122.483 171.016C122.588 169.556 123.036 168.142 123.791 166.889C124.545 165.635 125.586 164.578 126.827 163.803Z" fill="#F0FC66"/>
<path d="M124.218 189.143L128.893 186.445C129.896 185.893 130.629 186.344 130.629 187.448V192.845C130.596 193.448 130.422 194.034 130.121 194.557C129.819 195.08 129.399 195.525 128.893 195.855L124.218 198.513C123.215 199.075 122.483 198.623 122.483 197.51V192.113C122.522 191.517 122.7 190.939 123.001 190.424C123.302 189.908 123.719 189.47 124.218 189.143Z" fill="#F0FC66"/>
<path d="M124.218 207.973L128.893 205.274C129.896 204.713 130.629 205.164 130.629 206.278V211.675C130.594 212.277 130.419 212.863 130.117 213.385C129.816 213.908 129.397 214.352 128.893 214.684L124.218 217.383C123.215 217.935 122.483 217.483 122.483 216.38V210.983C122.514 210.379 122.687 209.792 122.989 209.269C123.291 208.746 123.712 208.302 124.218 207.973Z" fill="#F0FC66"/>
<path d="M136.879 203.017L165.128 186.695C166.332 186.003 167.305 186.495 167.305 187.799C167.251 188.528 167.025 189.234 166.647 189.86C166.269 190.485 165.749 191.013 165.128 191.4L136.879 207.722C135.675 208.414 134.702 207.923 134.702 206.619C134.756 205.89 134.982 205.184 135.36 204.558C135.738 203.932 136.258 203.404 136.879 203.017Z" fill="#F0FC66"/>
<path d="M124.218 226.793L128.893 224.094C129.896 223.532 130.629 223.984 130.629 225.097V230.495C130.595 231.097 130.42 231.683 130.118 232.206C129.817 232.728 129.397 233.173 128.893 233.504L124.218 236.203C123.215 236.754 122.483 236.303 122.483 235.2V229.802C122.514 229.199 122.687 228.612 122.989 228.089C123.291 227.566 123.712 227.122 124.218 226.793V226.793Z" fill="#E0E0E0"/>
<path d="M136.879 221.837L165.128 205.535C166.332 204.843 167.305 205.335 167.305 206.639C167.252 207.368 167.027 208.075 166.649 208.701C166.271 209.327 165.75 209.854 165.128 210.24L136.879 226.562C135.675 227.254 134.702 226.763 134.702 225.459C134.753 224.726 134.977 224.016 135.356 223.387C135.734 222.757 136.256 222.226 136.879 221.837V221.837Z" fill="#F0F0F0"/>
<path d="M124.218 245.663L128.893 242.964C129.896 242.402 130.629 242.854 130.629 243.967V249.364C130.595 249.967 130.42 250.553 130.118 251.075C129.817 251.598 129.397 252.043 128.893 252.374L124.218 255.073C123.215 255.624 122.483 255.173 122.483 254.069V248.672C122.514 248.069 122.687 247.482 122.989 246.959C123.291 246.436 123.712 245.992 124.218 245.663V245.663Z" fill="#E0E0E0"/>
<path d="M136.879 240.707L165.128 224.395C166.332 223.693 167.305 224.195 167.305 225.489C167.252 226.22 167.027 226.928 166.649 227.555C166.271 228.183 165.75 228.712 165.128 229.1L136.879 245.412C135.675 246.104 134.702 245.613 134.702 244.308C134.756 243.579 134.982 242.873 135.36 242.248C135.738 241.622 136.258 241.094 136.879 240.707Z" fill="#F0F0F0"/>
<path d="M124.218 264.483L128.893 261.784C129.896 261.222 130.629 261.674 130.629 262.787V268.184C130.595 268.787 130.42 269.373 130.118 269.895C129.817 270.418 129.397 270.863 128.893 271.194L124.218 273.892C123.215 274.444 122.483 273.993 122.483 272.889V267.492C122.514 266.889 122.687 266.302 122.989 265.779C123.291 265.256 123.712 264.811 124.218 264.483Z" fill="#E0E0E0"/>
<path d="M136.879 259.527L165.128 243.215C166.332 242.513 167.305 243.014 167.305 244.308C167.252 245.039 167.027 245.747 166.649 246.375C166.271 247.002 165.75 247.532 165.128 247.92L136.879 264.232C135.675 264.924 134.702 264.432 134.702 263.128C134.756 262.399 134.982 261.693 135.36 261.068C135.738 260.442 136.258 259.914 136.879 259.527V259.527Z" fill="#F0F0F0"/>
<path d="M124.65 283.001L144.713 271.395C145.917 270.702 146.89 271.194 146.89 272.498C146.836 273.227 146.61 273.933 146.232 274.559C145.854 275.185 145.334 275.712 144.713 276.1L124.65 287.706C123.456 288.399 122.483 287.907 122.483 286.613C122.536 285.883 122.759 285.176 123.136 284.549C123.512 283.921 124.031 283.391 124.65 283.001V283.001Z" fill="#F0FC66"/>
<path d="M124.65 292.411L165.128 269.047C166.332 268.355 167.305 268.846 167.305 270.14C167.252 270.871 167.027 271.579 166.649 272.207C166.271 272.834 165.75 273.364 165.128 273.752L124.65 297.116C123.456 297.808 122.483 297.317 122.483 296.023C122.536 295.293 122.759 294.586 123.136 293.959C123.512 293.331 124.031 292.801 124.65 292.411V292.411Z" fill="#BA68C8"/>
<path opacity="0.8" d="M124.65 292.411L165.128 269.047C166.332 268.355 167.305 268.846 167.305 270.14C167.252 270.871 167.027 271.579 166.649 272.207C166.271 272.834 165.75 273.364 165.128 273.752L124.65 297.116C123.456 297.808 122.483 297.317 122.483 296.023C122.536 295.293 122.759 294.586 123.136 293.959C123.512 293.331 124.031 292.801 124.65 292.411V292.411Z" fill="white"/>
<path d="M124.65 292.411L152.91 276.099C154.103 275.407 155.076 275.899 155.076 277.203C155.022 277.931 154.798 278.636 154.422 279.262C154.045 279.887 153.527 280.416 152.91 280.804L124.65 297.116C123.456 297.808 122.483 297.317 122.483 296.023C122.536 295.293 122.759 294.586 123.136 293.959C123.512 293.331 124.031 292.801 124.65 292.411V292.411Z" fill="#F0FC66"/>
<path d="M124.65 301.841L144.713 290.234C145.917 289.542 146.89 290.034 146.89 291.338C146.836 292.067 146.61 292.773 146.232 293.399C145.854 294.024 145.334 294.552 144.713 294.939L124.65 306.546C123.456 307.238 122.483 306.747 122.483 305.453C122.536 304.723 122.759 304.016 123.136 303.389C123.512 302.761 124.031 302.231 124.65 301.841V301.841Z" fill="#BA68C8"/>
<path d="M136.879 184.187L165.128 167.876C166.332 167.183 167.305 167.675 167.305 168.979C167.251 169.708 167.025 170.414 166.647 171.04C166.269 171.666 165.749 172.193 165.128 172.58L136.879 188.892C135.675 189.585 134.702 189.093 134.702 187.799C134.755 187.068 134.979 186.36 135.358 185.732C135.736 185.105 136.257 184.576 136.879 184.187Z" fill="#F0FC66"/>
<path d="M124.65 301.841L144.713 290.234C145.917 289.542 146.89 290.034 146.89 291.338C146.836 292.067 146.61 292.773 146.232 293.399C145.854 294.024 145.334 294.552 144.713 294.939L124.65 306.546C123.456 307.238 122.483 306.747 122.483 305.453C122.536 304.723 122.759 304.016 123.136 303.389C123.512 302.761 124.031 302.231 124.65 301.841V301.841Z" fill="#F0FC66"/>
<path d="M124.65 311.221L165.128 287.857C166.332 287.165 167.305 287.656 167.305 288.95C167.252 289.681 167.027 290.389 166.649 291.017C166.271 291.644 165.75 292.174 165.128 292.562L124.65 315.886C123.456 316.588 122.483 316.087 122.483 314.792C122.542 314.07 122.768 313.371 123.144 312.751C123.52 312.131 124.036 311.607 124.65 311.221V311.221Z" fill="#BA68C8"/>
<path opacity="0.8" d="M124.65 311.221L165.128 287.857C166.332 287.165 167.305 287.656 167.305 288.95C167.252 289.681 167.027 290.389 166.649 291.017C166.271 291.644 165.75 292.174 165.128 292.562L124.65 315.886C123.456 316.588 122.483 316.087 122.483 314.792C122.542 314.07 122.768 313.371 123.144 312.751C123.52 312.131 124.036 311.607 124.65 311.221V311.221Z" fill="white"/>
<path d="M124.65 311.221L161.055 290.154C162.259 289.462 163.232 289.953 163.232 291.258C163.178 291.987 162.952 292.693 162.574 293.318C162.196 293.944 161.676 294.472 161.055 294.859L124.65 315.926C123.456 316.628 122.483 316.127 122.483 314.833C122.536 314.103 122.759 313.396 123.136 312.768C123.512 312.141 124.031 311.611 124.65 311.221V311.221Z" fill="#F0FC66"/>
<path d="M267.002 2.98164L175.451 55.8396V300.517L267.002 247.669C267.635 247.258 268.163 246.703 268.541 246.049C268.919 245.395 269.138 244.661 269.179 243.907V4.23563C269.169 2.89136 268.166 2.28944 267.002 2.98164Z" fill="#EBEBEB"/>
<path opacity="0.6" d="M267.002 2.98164L175.451 55.8396V300.517L267.002 247.669C267.635 247.258 268.163 246.703 268.541 246.049C268.919 245.395 269.138 244.661 269.179 243.907V4.23563C269.169 2.89136 268.166 2.28944 267.002 2.98164Z" fill="#FAFAFA"/>
<path d="M175.451 65.2495V84.0693L167.305 93.4792H175.451V112.299L261.023 62.892V15.8425L175.451 65.2495Z" fill="#F0FC66"/>
<g opacity="0.6">
<path opacity="0.6" d="M186.647 65.9017L221.317 45.8379C222.992 44.8348 224.326 45.6574 224.326 47.5935C224.271 48.6455 223.97 49.6699 223.447 50.5845C222.925 51.4992 222.195 52.2786 221.317 52.8603L186.647 72.8738C184.961 73.877 183.637 73.0544 183.637 71.1183C183.698 70.0744 184.001 69.0591 184.524 68.1534C185.046 67.2477 185.773 66.4767 186.647 65.9017V65.9017Z" fill="white"/>
</g>
<path d="M184.69 81.1401L251.794 42.397C252.396 42.0559 252.877 42.2967 252.877 42.9487C252.851 43.3137 252.74 43.6674 252.551 43.9812C252.363 44.2949 252.103 44.5598 251.794 44.7545L184.69 83.4474C184.089 83.7885 183.607 83.5477 183.607 82.8957C183.641 82.5394 183.756 82.1957 183.944 81.8913C184.132 81.5868 184.387 81.3297 184.69 81.1401V81.1401Z" fill="#BA68C8"/>
<path d="M184.69 81.1401L251.794 42.397C252.396 42.0559 252.877 42.2967 252.877 42.9487C252.851 43.3137 252.74 43.6674 252.551 43.9812C252.363 44.2949 252.103 44.5598 251.794 44.7545L184.69 83.4474C184.089 83.7885 183.607 83.5477 183.607 82.8957C183.641 82.5394 183.756 82.1957 183.944 81.8913C184.132 81.5868 184.387 81.3297 184.69 81.1401V81.1401Z" fill="#263238"/>
<path d="M184.69 88.1623L251.794 49.4192C252.396 49.0681 252.877 49.3189 252.877 49.971C252.851 50.3346 252.74 50.6869 252.551 50.9991C252.363 51.3112 252.103 51.5743 251.794 51.7667L184.69 90.5098C184.089 90.8609 183.607 90.6101 183.607 89.958C183.633 89.5944 183.745 89.2421 183.933 88.93C184.121 88.6178 184.381 88.3548 184.69 88.1623Z" fill="#263238"/>
<path opacity="0.6" d="M184.69 95.1845L251.794 56.4414C252.396 56.1003 252.877 56.3411 252.877 56.9932C252.851 57.3581 252.74 57.7119 252.551 58.0256C252.363 58.3393 252.103 58.6043 251.794 58.7989L184.69 97.542C184.089 97.8831 183.607 97.6423 183.607 96.9903C183.633 96.6253 183.745 96.2716 183.933 95.9578C184.121 95.6441 184.381 95.3792 184.69 95.1845V95.1845Z" fill="white"/>
<path d="M187.218 114.948L191.923 112.239C192.927 111.677 193.659 112.129 193.659 113.242V118.639C193.626 119.242 193.451 119.828 193.15 120.351C192.848 120.874 192.428 121.318 191.923 121.649L187.249 124.347C186.245 124.899 185.513 124.448 185.513 123.344V117.957C185.541 117.357 185.71 116.771 186.006 116.248C186.302 115.725 186.718 115.28 187.218 114.948V114.948Z" fill="#D9EC05"/>
<path d="M199.879 109.992L228.128 93.6698C229.332 92.9776 230.305 93.4691 230.305 94.7733C230.251 95.5023 230.025 96.2083 229.647 96.834C229.269 97.4597 228.749 97.9875 228.128 98.3747L199.879 114.697C198.675 115.389 197.702 114.897 197.702 113.593C197.756 112.864 197.982 112.158 198.36 111.532C198.738 110.907 199.258 110.379 199.879 109.992V109.992Z" fill="#492E95"/>
<path d="M186.566 131.801L257.793 90.6703C258.395 90.3192 258.876 90.5699 258.876 91.212C258.851 91.5772 258.74 91.9312 258.551 92.245C258.363 92.5589 258.103 92.8237 257.793 93.0177L186.566 134.148C185.965 134.5 185.483 134.249 185.483 133.597C185.509 133.233 185.621 132.881 185.809 132.569C185.997 132.256 186.257 131.993 186.566 131.801Z" fill="#BA68C8"/>
<path d="M186.566 138.853L257.793 97.7227C258.395 97.3816 258.876 97.6224 258.876 98.2744C258.85 98.6394 258.739 98.9931 258.55 99.3068C258.362 99.6206 258.103 99.8855 257.793 100.08L186.566 141.211C185.965 141.552 185.483 141.311 185.483 140.659C185.509 140.294 185.621 139.94 185.809 139.627C185.997 139.313 186.257 139.048 186.566 138.853Z" fill="#BA68C8"/>
<path d="M186.566 145.916L257.793 104.785C258.395 104.434 258.876 104.685 258.876 105.327C258.851 105.692 258.74 106.046 258.551 106.36C258.363 106.674 258.103 106.939 257.793 107.133L186.566 148.263C185.965 148.615 185.483 148.364 185.483 147.722C185.508 147.357 185.619 147.003 185.808 146.689C185.996 146.375 186.256 146.11 186.566 145.916Z" fill="#BA68C8"/>
<path d="M186.566 152.988L257.793 111.858C258.395 111.517 258.876 111.757 258.876 112.409C258.85 112.774 258.739 113.128 258.55 113.442C258.362 113.756 258.103 114.021 257.793 114.215L186.566 155.346C185.965 155.687 185.483 155.446 185.483 154.794C185.509 154.429 185.621 154.075 185.809 153.762C185.997 153.448 186.257 153.183 186.566 152.988Z" fill="#BA68C8"/>
<path d="M186.566 131.801L257.793 90.6703C258.395 90.3192 258.876 90.5699 258.876 91.212C258.851 91.5772 258.74 91.9312 258.551 92.245C258.363 92.5589 258.103 92.8237 257.793 93.0177L186.566 134.148C185.965 134.5 185.483 134.249 185.483 133.597C185.509 133.233 185.621 132.881 185.809 132.569C185.997 132.256 186.257 131.993 186.566 131.801Z" fill="#E0E0E0"/>
<path d="M186.566 138.853L257.793 97.7227C258.395 97.3816 258.876 97.6224 258.876 98.2744C258.85 98.6394 258.739 98.9931 258.55 99.3068C258.362 99.6206 258.103 99.8855 257.793 100.08L186.566 141.211C185.965 141.552 185.483 141.311 185.483 140.659C185.509 140.294 185.621 139.94 185.809 139.627C185.997 139.313 186.257 139.048 186.566 138.853Z" fill="#E0E0E0"/>
<path d="M186.566 145.916L257.793 104.785C258.395 104.434 258.876 104.685 258.876 105.327C258.851 105.692 258.74 106.046 258.551 106.36C258.363 106.674 258.103 106.939 257.793 107.133L186.566 148.263C185.965 148.615 185.483 148.364 185.483 147.722C185.508 147.357 185.619 147.003 185.808 146.689C185.996 146.375 186.256 146.11 186.566 145.916Z" fill="#E0E0E0"/>
<path d="M186.566 152.988L257.793 111.858C258.395 111.517 258.876 111.757 258.876 112.409C258.85 112.774 258.739 113.128 258.55 113.442C258.362 113.756 258.103 114.021 257.793 114.215L186.566 155.346C185.965 155.687 185.483 155.446 185.483 154.794C185.509 154.429 185.621 154.075 185.809 153.762C185.997 153.448 186.257 153.183 186.566 152.988Z" fill="#E0E0E0"/>
<path opacity="0.8" d="M186.566 131.801L257.793 90.6703C258.395 90.3192 258.876 90.5699 258.876 91.212C258.851 91.5772 258.74 91.9312 258.551 92.245C258.363 92.5589 258.103 92.8237 257.793 93.0177L186.566 134.148C185.965 134.5 185.483 134.249 185.483 133.597C185.509 133.233 185.621 132.881 185.809 132.569C185.997 132.256 186.257 131.993 186.566 131.801Z" fill="#E0E0E0"/>
<path opacity="0.8" d="M186.566 138.853L257.793 97.7227C258.395 97.3816 258.876 97.6224 258.876 98.2744C258.85 98.6394 258.739 98.9931 258.55 99.3068C258.362 99.6206 258.103 99.8855 257.793 100.08L186.566 141.211C185.965 141.552 185.483 141.311 185.483 140.659C185.509 140.294 185.621 139.94 185.809 139.627C185.997 139.313 186.257 139.048 186.566 138.853Z" fill="#E0E0E0"/>
<path opacity="0.8" d="M186.566 145.916L257.793 104.785C258.395 104.434 258.876 104.685 258.876 105.327C258.851 105.692 258.74 106.046 258.551 106.36C258.363 106.674 258.103 106.939 257.793 107.133L186.566 148.263C185.965 148.615 185.483 148.364 185.483 147.722C185.508 147.357 185.619 147.003 185.808 146.689C185.996 146.375 186.256 146.11 186.566 145.916Z" fill="#E0E0E0"/>
<path opacity="0.8" d="M186.566 152.988L257.793 111.858C258.395 111.517 258.876 111.757 258.876 112.409C258.85 112.774 258.739 113.128 258.55 113.442C258.362 113.756 258.103 114.021 257.793 114.215L186.566 155.346C185.965 155.687 185.483 155.446 185.483 154.794C185.509 154.429 185.621 154.075 185.809 153.762C185.997 153.448 186.257 153.183 186.566 152.988Z" fill="#E0E0E0"/>
<path d="M186.566 182.964L257.793 141.833C258.395 141.482 258.876 141.733 258.876 142.375C258.851 142.74 258.74 143.094 258.551 143.408C258.363 143.722 258.103 143.986 257.793 144.18L186.566 185.311C185.965 185.662 185.483 185.411 185.483 184.759C185.509 184.396 185.621 184.043 185.809 183.731C185.997 183.419 186.257 183.156 186.566 182.964Z" fill="#E0E0E0"/>
<path d="M186.566 190.016L257.793 148.885C258.395 148.544 258.876 148.785 258.876 149.437C258.85 149.802 258.739 150.156 258.55 150.469C258.362 150.783 258.103 151.048 257.793 151.243L186.566 192.373C185.965 192.715 185.483 192.474 185.483 191.822C185.509 191.457 185.621 191.103 185.809 190.789C185.997 190.476 186.257 190.211 186.566 190.016V190.016Z" fill="#E0E0E0"/>
<path d="M186.566 197.078L257.793 155.948C258.395 155.597 258.876 155.847 258.876 156.489C258.851 156.854 258.74 157.209 258.551 157.522C258.363 157.836 258.103 158.101 257.793 158.295L186.566 199.426C185.965 199.777 185.483 199.526 185.483 198.884C185.508 198.519 185.619 198.165 185.808 197.851C185.996 197.537 186.256 197.272 186.566 197.078V197.078Z" fill="#E0E0E0"/>
<path d="M186.566 204.151L257.793 163.02C258.395 162.679 258.876 162.92 258.876 163.572C258.85 163.937 258.739 164.29 258.55 164.604C258.362 164.918 258.103 165.183 257.793 165.378L186.566 206.508C185.965 206.849 185.483 206.609 185.483 205.956C185.509 205.592 185.621 205.238 185.809 204.924C185.997 204.61 186.257 204.345 186.566 204.151V204.151Z" fill="#E0E0E0"/>
<path opacity="0.8" d="M186.566 182.964L257.793 141.833C258.395 141.482 258.876 141.733 258.876 142.375C258.851 142.74 258.74 143.094 258.551 143.408C258.363 143.722 258.103 143.986 257.793 144.18L186.566 185.311C185.965 185.662 185.483 185.411 185.483 184.759C185.509 184.396 185.621 184.043 185.809 183.731C185.997 183.419 186.257 183.156 186.566 182.964Z" fill="#E0E0E0"/>
<path opacity="0.8" d="M186.566 190.016L257.793 148.885C258.395 148.544 258.876 148.785 258.876 149.437C258.85 149.802 258.739 150.156 258.55 150.469C258.362 150.783 258.103 151.048 257.793 151.243L186.566 192.373C185.965 192.715 185.483 192.474 185.483 191.822C185.509 191.457 185.621 191.103 185.809 190.789C185.997 190.476 186.257 190.211 186.566 190.016V190.016Z" fill="#E0E0E0"/>
<path opacity="0.8" d="M186.566 197.078L257.793 155.948C258.395 155.597 258.876 155.847 258.876 156.489C258.851 156.854 258.74 157.209 258.551 157.522C258.363 157.836 258.103 158.101 257.793 158.295L186.566 199.426C185.965 199.777 185.483 199.526 185.483 198.884C185.508 198.519 185.619 198.165 185.808 197.851C185.996 197.537 186.256 197.272 186.566 197.078V197.078Z" fill="#E0E0E0"/>
<path opacity="0.8" d="M186.566 204.151L257.793 163.02C258.395 162.679 258.876 162.92 258.876 163.572C258.85 163.937 258.739 164.29 258.55 164.604C258.362 164.918 258.103 165.183 257.793 165.378L186.566 206.508C185.965 206.849 185.483 206.609 185.483 205.956C185.509 205.592 185.621 205.238 185.809 204.924C185.997 204.61 186.257 204.345 186.566 204.151V204.151Z" fill="#E0E0E0"/>
<path d="M186.566 235.129L257.793 193.999C258.395 193.648 258.876 193.898 258.876 194.54C258.851 194.906 258.74 195.26 258.551 195.573C258.363 195.887 258.103 196.152 257.793 196.346L186.566 237.477C185.965 237.828 185.483 237.577 185.483 236.925C185.509 236.561 185.621 236.209 185.809 235.897C185.997 235.585 186.257 235.322 186.566 235.129V235.129Z" fill="#E0E0E0"/>
<path d="M186.566 242.182L257.793 201.051C258.395 200.71 258.876 200.951 258.876 201.603C258.85 201.968 258.739 202.321 258.55 202.635C258.362 202.949 258.103 203.214 257.793 203.409L186.566 244.539C185.965 244.88 185.483 244.64 185.483 243.987C185.509 243.622 185.621 243.269 185.809 242.955C185.997 242.641 186.257 242.376 186.566 242.182V242.182Z" fill="#E0E0E0"/>
<path d="M186.566 249.244L257.793 208.113C258.395 207.762 258.876 208.013 258.876 208.655C258.851 209.02 258.74 209.374 258.551 209.688C258.363 210.002 258.103 210.267 257.793 210.461L186.566 251.592C185.965 251.943 185.483 251.692 185.483 251.05C185.508 250.685 185.619 250.331 185.808 250.017C185.996 249.703 186.256 249.438 186.566 249.244Z" fill="#E0E0E0"/>
<path d="M186.566 256.316L257.793 215.186C258.395 214.845 258.876 215.086 258.876 215.738C258.85 216.103 258.739 216.456 258.55 216.77C258.362 217.084 258.103 217.349 257.793 217.543L186.566 258.674C185.965 259.015 185.483 258.774 185.483 258.122C185.509 257.757 185.621 257.404 185.809 257.09C185.997 256.776 186.257 256.511 186.566 256.316V256.316Z" fill="#E0E0E0"/>
<path opacity="0.8" d="M186.566 235.129L257.793 193.999C258.395 193.648 258.876 193.898 258.876 194.54C258.851 194.906 258.74 195.26 258.551 195.573C258.363 195.887 258.103 196.152 257.793 196.346L186.566 237.477C185.965 237.828 185.483 237.577 185.483 236.925C185.509 236.561 185.621 236.209 185.809 235.897C185.997 235.585 186.257 235.322 186.566 235.129V235.129Z" fill="#E0E0E0"/>
<path opacity="0.8" d="M186.566 242.182L257.793 201.051C258.395 200.71 258.876 200.951 258.876 201.603C258.85 201.968 258.739 202.321 258.55 202.635C258.362 202.949 258.103 203.214 257.793 203.409L186.566 244.539C185.965 244.88 185.483 244.64 185.483 243.987C185.509 243.622 185.621 243.269 185.809 242.955C185.997 242.641 186.257 242.376 186.566 242.182V242.182Z" fill="#E0E0E0"/>
<path opacity="0.8" d="M186.566 249.244L257.793 208.113C258.395 207.762 258.876 208.013 258.876 208.655C258.851 209.02 258.74 209.374 258.551 209.688C258.363 210.002 258.103 210.267 257.793 210.461L186.566 251.592C185.965 251.943 185.483 251.692 185.483 251.05C185.508 250.685 185.619 250.331 185.808 250.017C185.996 249.703 186.256 249.438 186.566 249.244Z" fill="#E0E0E0"/>
<path opacity="0.8" d="M186.566 256.316L257.793 215.186C258.395 214.845 258.876 215.086 258.876 215.738C258.85 216.103 258.739 216.456 258.55 216.77C258.362 217.084 258.103 217.349 257.793 217.543L186.566 258.674C185.965 259.015 185.483 258.774 185.483 258.122C185.509 257.757 185.621 257.404 185.809 257.09C185.997 256.776 186.257 256.511 186.566 256.316V256.316Z" fill="#E0E0E0"/>
<path d="M187.218 166.702L191.923 164.003C192.927 163.452 193.659 163.903 193.659 165.006V170.424C193.628 171.027 193.455 171.614 193.153 172.137C192.851 172.66 192.43 173.104 191.923 173.433L187.249 176.132C186.245 176.684 185.513 176.242 185.513 175.129V169.731C185.538 169.128 185.706 168.539 186.002 168.012C186.299 167.486 186.716 167.037 187.218 166.702V166.702Z" fill="#D9EC05"/>
<path d="M199.879 161.746L228.128 145.434C229.332 144.742 230.305 145.234 230.305 146.528C230.252 147.259 230.028 147.967 229.649 148.594C229.271 149.222 228.75 149.751 228.128 150.139L199.879 166.411C198.675 167.103 197.702 166.611 197.702 165.317C197.761 164.594 197.989 163.894 198.367 163.273C198.745 162.653 199.262 162.13 199.879 161.746V161.746Z" fill="#492E95"/>
<path d="M187.218 218.466L191.923 215.768C192.927 215.206 193.659 215.657 193.659 216.771V222.168C193.627 222.771 193.453 223.358 193.152 223.881C192.85 224.404 192.429 224.848 191.923 225.178L187.249 227.876C186.245 228.428 185.513 227.977 185.513 226.873V221.476C185.541 220.876 185.71 220.29 186.006 219.767C186.302 219.244 186.718 218.799 187.218 218.466V218.466Z" fill="#D9EC05"/>
<path d="M199.879 213.561L228.128 197.239C229.332 196.547 230.305 197.038 230.305 198.342C230.252 199.073 230.026 199.781 229.648 200.408C229.27 201.036 228.749 201.565 228.128 201.954L199.879 218.266C198.675 218.958 197.702 218.466 197.702 217.162C197.756 216.433 197.982 215.727 198.36 215.101C198.738 214.476 199.258 213.948 199.879 213.561V213.561Z" fill="#492E95"/>
<path d="M193.87 264.031L198.544 261.332C199.548 260.781 200.29 261.232 200.29 262.336V267.733C200.257 268.337 200.082 268.924 199.778 269.447C199.475 269.97 199.052 270.414 198.544 270.742L193.87 273.441C192.917 274.003 192.134 273.551 192.134 272.438V267.041C192.169 266.438 192.344 265.853 192.645 265.33C192.947 264.808 193.366 264.363 193.87 264.031Z" fill="#F0FC66"/>
<path d="M186.566 282.369L205.858 271.234C206.46 270.893 206.941 271.134 206.941 271.786C206.915 272.151 206.804 272.504 206.615 272.818C206.427 273.132 206.168 273.397 205.858 273.591L186.566 284.727C185.965 285.068 185.483 284.827 185.483 284.175C185.509 283.81 185.621 283.456 185.809 283.143C185.997 282.829 186.257 282.564 186.566 282.369V282.369Z" fill="#E0E0E0"/>
<path d="M219.822 249.043L224.497 246.345C225.45 245.793 226.232 246.245 226.232 247.348V252.745C226.2 253.348 226.026 253.934 225.724 254.457C225.423 254.98 225.002 255.425 224.497 255.755L219.822 258.453C218.819 259.005 218.077 258.564 218.077 257.45V252.053C218.11 251.449 218.286 250.862 218.589 250.339C218.892 249.816 219.315 249.372 219.822 249.043V249.043Z" fill="#F0FC66"/>
<path d="M212.509 267.382L231.8 256.246C232.402 255.895 232.884 256.146 232.884 256.798C232.858 257.162 232.746 257.514 232.558 257.826C232.369 258.138 232.11 258.401 231.8 258.594L212.509 269.739C211.907 270.09 211.425 269.84 211.425 269.198C211.449 268.831 211.56 268.475 211.748 268.159C211.936 267.843 212.197 267.577 212.509 267.382Z" fill="#E0E0E0"/>
<path d="M245.765 234.056L250.439 231.357C251.392 230.795 252.175 231.247 252.175 232.36V237.758C252.141 238.36 251.966 238.946 251.665 239.468C251.363 239.991 250.944 240.436 250.439 240.767L245.765 243.466C244.761 244.017 244.029 243.566 244.029 242.462V237.065C244.06 236.462 244.233 235.875 244.535 235.352C244.837 234.829 245.258 234.385 245.765 234.056V234.056Z" fill="#F0FC66"/>
<path d="M238.451 252.394L257.743 241.259C258.344 240.908 258.826 241.159 258.826 241.801C258.801 242.166 258.69 242.52 258.501 242.834C258.313 243.148 258.053 243.412 257.743 243.606L238.451 254.742C237.859 255.093 237.368 254.842 237.368 254.19C237.396 253.827 237.509 253.476 237.697 253.164C237.885 252.852 238.143 252.589 238.451 252.394V252.394Z" fill="#E0E0E0"/>
<path d="M142.858 85.0124C131.602 91.3526 122.483 107.153 122.483 120.295C122.483 133.436 131.602 138.833 142.858 132.333C154.113 125.832 163.232 110.042 163.232 97.0407C163.232 84.0394 154.103 78.6623 142.858 85.0124Z" fill="#FAFAFA"/>
<path d="M152.729 125.511L136.417 129.885C136.136 129.977 135.837 129.997 135.546 129.943C135.256 129.89 134.983 129.765 134.753 129.58C134.523 129.395 134.342 129.155 134.228 128.882C134.114 128.61 134.07 128.313 134.1 128.019V100.251C134.157 97.9524 134.925 95.7282 136.297 93.8835C137.67 92.0388 139.579 90.6641 141.764 89.9481L147.342 88.4534C151.585 87.3198 155.026 90.0886 155.026 94.633V122.411C155.008 123.101 154.778 123.769 154.367 124.324C153.956 124.878 153.384 125.293 152.729 125.511V125.511Z" fill="#B66B27"/>
<path d="M153.511 132.694L151.796 125.12C151.796 125.12 151.796 114.897 150.341 113.954C148.887 113.011 148.465 112.831 148.465 112.831C150.331 112.189 154.264 111.707 155.488 115.299C156.661 118.689 158.417 127.046 159.25 131.159L153.511 132.694Z" fill="#F28F8F"/>
<path d="M153.371 132.734L147.552 112.921C150.131 111.918 153.441 111.085 155.046 113.744C156.491 116.131 158.798 128.641 159.25 131.159L153.371 132.734Z" fill="#F0FC66"/>
<path d="M154.153 132.523L148.435 134.058C148.665 132.416 149.207 130.833 150.03 129.394C151.175 127.744 152.821 126.509 154.725 125.872C154.313 128.065 154.122 130.293 154.153 132.523Z" fill="#BA68C8"/>
<path d="M154.153 132.523L148.435 134.058C148.665 132.416 149.207 130.833 150.03 129.394C151.175 127.744 152.821 126.509 154.725 125.872C154.313 128.065 154.122 130.293 154.153 132.523Z" fill="#BA68C8"/>
<g opacity="0.7">
<path opacity="0.7" d="M154.153 132.523L148.435 134.058C148.665 132.416 149.207 130.833 150.03 129.394C151.175 127.744 152.821 126.509 154.725 125.872C154.313 128.065 154.122 130.293 154.153 132.523Z" fill="black"/>
</g>
<path d="M152.93 132.854L136.879 137.138L135.113 131.671C135.113 131.671 139.798 120.706 134.009 117.887C134.742 117.335 140.911 114.927 140.911 114.927L147.542 112.921C148.806 112.58 153.913 114.847 155.207 119.873C155.668 121.649 155.508 123.244 152.909 132.493C152.94 132.614 152.93 132.734 152.93 132.854Z" fill="#263238"/>
<path d="M151.605 91.8643C152.709 92.2655 154.073 94.8738 153.943 101.164C153.832 106.501 152.227 108.186 151.425 108.828C150.223 109.43 148.897 109.743 147.552 109.741V112.921C147.552 112.921 149.639 114.928 149.509 116.452C149.378 117.977 146.499 119.061 144.553 118.158C143.131 117.356 141.902 116.254 140.951 114.928V107.604C140.805 107.773 140.626 107.911 140.426 108.01C140.225 108.109 140.007 108.168 139.784 108.182C139.561 108.196 139.337 108.165 139.126 108.092C138.915 108.019 138.72 107.904 138.554 107.755C138.241 107.54 137.973 107.265 137.768 106.946C137.563 106.626 137.424 106.269 137.36 105.895C137.295 105.52 137.306 105.137 137.393 104.767C137.479 104.398 137.638 104.049 137.862 103.742C138.865 102.428 140.62 102.237 141.303 103.551C142.152 101.49 143.672 99.7759 145.616 98.6859C148.786 96.7598 150.512 95.0444 151.605 91.8643Z" fill="#FFA8A7"/>
<path d="M148.425 101.314C148.43 101.504 148.375 101.691 148.269 101.849C148.163 102.007 148.011 102.129 147.833 102.197C147.758 102.223 147.677 102.231 147.598 102.218C147.519 102.206 147.445 102.175 147.381 102.128C147.316 102.081 147.265 102.018 147.23 101.946C147.195 101.875 147.179 101.795 147.181 101.716C147.177 101.525 147.231 101.338 147.337 101.18C147.443 101.022 147.596 100.901 147.773 100.833C147.849 100.807 147.929 100.799 148.008 100.811C148.087 100.823 148.162 100.854 148.226 100.902C148.29 100.949 148.342 101.012 148.377 101.083C148.411 101.155 148.428 101.234 148.425 101.314V101.314Z" fill="#37474F"/>
<path d="M148.586 105.768L150.03 105.869C149.988 106.089 149.873 106.289 149.704 106.436C149.535 106.583 149.321 106.67 149.097 106.681C148.696 106.651 148.465 106.22 148.586 105.768Z" fill="#F28F8F"/>
<path d="M153.521 97.9036L152.267 97.3117C152.342 97.1177 152.486 96.9582 152.671 96.8637C152.856 96.7693 153.07 96.7466 153.271 96.8001C153.36 96.8554 153.438 96.928 153.499 97.0137C153.561 97.0994 153.604 97.1964 153.628 97.2992C153.651 97.4019 153.654 97.5083 153.635 97.6121C153.617 97.7159 153.578 97.815 153.521 97.9036V97.9036Z" fill="#37474F"/>
<path d="M146.619 100.251L147.873 98.9768C147.807 98.9091 147.727 98.8563 147.638 98.8218C147.55 98.7874 147.455 98.772 147.361 98.7767C147.266 98.7815 147.173 98.8062 147.089 98.8493C147.004 98.8924 146.93 98.953 146.87 99.0269C146.696 99.1725 146.577 99.3728 146.531 99.5951C146.486 99.8174 146.517 100.049 146.619 100.251V100.251Z" fill="#37474F"/>
<path d="M153.23 99.5486C153.236 99.7391 153.182 99.9267 153.076 100.085C152.97 100.243 152.817 100.364 152.639 100.431C152.562 100.458 152.481 100.465 152.401 100.453C152.321 100.44 152.246 100.408 152.181 100.36C152.117 100.311 152.065 100.247 152.032 100.174C151.998 100.101 151.982 100.02 151.987 99.9398C151.984 99.7499 152.039 99.5636 152.144 99.4059C152.25 99.2481 152.402 99.1264 152.578 99.057C152.655 99.0305 152.736 99.0232 152.816 99.0357C152.896 99.0483 152.971 99.0802 153.036 99.1288C153.1 99.1774 153.152 99.2411 153.186 99.3143C153.22 99.3875 153.235 99.468 153.23 99.5486Z" fill="#37474F"/>
<path d="M150.301 99.95L150.391 103.933L152.368 102.749L150.301 99.95Z" fill="#F28F8F"/>
<path d="M147.552 109.741C145.967 109.942 142.697 109.811 142.185 108.567C142.371 109.178 142.779 109.698 143.329 110.022C144.332 110.664 147.552 110.805 147.552 110.805V109.741Z" fill="#F28F8F"/>
<path d="M136.969 137.128L136.297 134.74L138.062 136.837L136.969 137.128Z" fill="#BA68C8"/>
<path d="M135.655 137.479C134.934 134.047 133.958 130.674 132.735 127.387C131.05 122.762 132.936 118.77 134.07 117.887C135.203 117.004 140.972 114.927 140.972 114.927C143.058 120.866 143.63 128.822 143.68 135.332L135.655 137.479Z" fill="#F0FC66"/>
<path d="M132.806 138.242L127.077 139.777C126.917 139.669 126.766 139.548 126.626 139.415C126.626 139.415 129.335 128.962 130.197 125.491C131.06 122.02 131.722 119.633 134.05 117.887C138.233 120.606 136.297 128.16 136.297 128.16L132.806 138.242Z" fill="#F0FC66"/>
<path d="M49.4007 71.4392V51.5661C49.3405 47.7138 51.8484 43.8516 56.9346 40.9223C66.9665 35.1138 83.2783 35.1138 93.3302 40.9223C98.4164 43.8516 100.924 47.7138 100.864 51.5661V71.369C100.864 75.2012 98.3963 82.0529 93.3302 84.9722C83.2984 90.7807 66.9865 90.7807 56.9346 84.9722C51.9187 82.083 49.4107 75.2814 49.4007 71.4793V71.4392Z" fill="#EBEBEB"/>
<path d="M75.1325 26.9077L117.597 51.4256L75.1325 75.9435L32.6675 51.4256L75.1325 26.9077Z" fill="#F5F5F5"/>
<path d="M53.8849 63.6747L74.8013 51.7368C74.8876 51.6874 74.9828 51.6555 75.0814 51.6428C75.1801 51.6302 75.2802 51.6371 75.3762 51.6632C75.4721 51.6893 75.562 51.734 75.6406 51.7949C75.7193 51.8557 75.7852 51.9314 75.8346 52.0177C75.884 52.104 75.916 52.1992 75.9286 52.2978C75.9412 52.3964 75.9343 52.4966 75.9082 52.5925C75.8821 52.6884 75.8374 52.7783 75.7766 52.857C75.7157 52.9356 75.64 53.0016 75.5537 53.051L55.3796 64.5375L53.8849 63.6747Z" fill="#E0E0E0"/>
<path d="M117.597 51.4258V53.1814L75.1324 77.6892V75.9437L117.597 51.4258Z" fill="#E6E6E6"/>
<path d="M32.6675 51.4258V53.1814L75.1324 77.6892V75.9437L32.6675 51.4258Z" fill="#F0F0F0"/>
<path d="M52.8315 64.8182L54.1257 65.5605C54.3213 65.241 54.5937 64.9755 54.9182 64.7881L55.3696 64.5273L53.8949 63.6846C53.4593 63.9772 53.0958 64.3648 52.8315 64.8182V64.8182Z" fill="#E0E0E0"/>
<path d="M100.914 62.8118L75.1324 80.3174L49.4207 62.8519L75.1324 77.689L100.914 62.8118Z" fill="#E0E0E0"/>
<path d="M51.1763 85.4639C51.5361 85.6495 51.9351 85.7464 52.34 85.7464C52.7449 85.7464 53.1439 85.6495 53.5037 85.4639L55.4198 97.8332C55.4198 100.171 49.3505 100.171 49.3505 97.8332L51.1763 85.4639Z" fill="#F5F5F5"/>
<path d="M51.066 92.5264L50.6848 99.3079C50.5596 99.27 50.4386 99.2196 50.3236 99.1574L51.066 92.5264Z" fill="#EBEBEB"/>
<path d="M53.9351 99.3581L53.1325 88.323L54.3263 99.1975C54.1992 99.2588 54.0685 99.3124 53.9351 99.3581V99.3581Z" fill="#EBEBEB"/>
<path d="M52.5707 99.5786H52.1895L52.3902 90.8208L52.5707 99.5786Z" fill="#EBEBEB"/>
<path d="M52.33 86.4972C52.7747 86.4862 53.2053 86.3391 53.5639 86.0759C53.7164 85.9633 53.82 85.7967 53.8536 85.6102C53.8871 85.4237 53.8481 85.2314 53.7445 85.0727C53.635 84.9166 53.4689 84.8093 53.2816 84.7737C53.0942 84.7381 52.9004 84.777 52.7413 84.8821C52.6458 84.9746 52.5181 85.0264 52.3851 85.0264C52.2522 85.0264 52.1245 84.9746 52.029 84.8821C51.951 84.8126 51.8594 84.7602 51.76 84.7281C51.6606 84.696 51.5556 84.6849 51.4516 84.6956C51.3477 84.7063 51.2472 84.7385 51.1564 84.7902C51.0656 84.8419 50.9866 84.9119 50.9244 84.9958C50.8621 85.0797 50.8181 85.1757 50.795 85.2775C50.7718 85.3794 50.7702 85.485 50.7901 85.5875C50.81 85.6901 50.8511 85.7874 50.9107 85.8732C50.9703 85.959 51.0471 86.0314 51.1362 86.0859C51.4815 86.3442 51.8989 86.488 52.33 86.4972V86.4972Z" fill="#E0E0E0"/>
<path d="M52.3801 84.571C52.4785 84.5723 52.5761 84.5541 52.6673 84.5174C52.7585 84.4806 52.8415 84.4262 52.9115 84.3571C52.9815 84.288 53.0371 84.2058 53.0751 84.115C53.113 84.0243 53.1325 83.9269 53.1325 83.8286V66.2929C53.1335 65.8986 53.2378 65.5115 53.4349 65.17C53.632 64.8286 53.9151 64.5447 54.2561 64.3467L75.5537 52.2081C75.7229 52.1113 75.8472 51.9518 75.8997 51.7641C75.9523 51.5764 75.9289 51.3756 75.8346 51.205C75.7876 51.1202 75.7243 51.0457 75.6482 50.9856C75.5722 50.9255 75.485 50.8811 75.3917 50.855C75.2984 50.8289 75.2008 50.8215 75.1047 50.8334C75.0085 50.8452 74.9156 50.8761 74.8315 50.9241L53.4836 63.0827C52.9146 63.4112 52.4418 63.8835 52.1126 64.4521C51.7833 65.0208 51.6092 65.6659 51.6077 66.323V83.8587C51.6115 83.9562 51.6346 84.052 51.6755 84.1406C51.7165 84.2292 51.7745 84.3088 51.8462 84.375C51.918 84.4411 52.002 84.4925 52.0937 84.5261C52.1853 84.5598 52.2826 84.575 52.3801 84.571V84.571Z" fill="#FAFAFA"/>
<path d="M54.0253 83.8286C54.0273 83.5028 53.9325 83.1837 53.753 82.9118C53.5734 82.64 53.3172 82.4275 53.0167 82.3015C52.7163 82.1754 52.3852 82.1414 52.0653 82.2037C51.7455 82.2661 51.4515 82.422 51.2204 82.6517C50.9893 82.8813 50.8316 83.1745 50.7673 83.4939C50.703 83.8133 50.735 84.1446 50.8592 84.4458C50.9834 84.747 51.1943 85.0046 51.465 85.1858C51.7358 85.367 52.0543 85.4638 52.3801 85.4638C52.5957 85.4651 52.8094 85.4238 53.009 85.3422C53.2085 85.2606 53.39 85.1404 53.5429 84.9884C53.6958 84.8364 53.8171 84.6557 53.8999 84.4567C53.9827 84.2576 54.0254 84.0442 54.0253 83.8286V83.8286Z" fill="#F5F5F5"/>
<path d="M50.7549 83.9188C50.8235 84.0885 50.9278 84.2415 51.0608 84.3673C51.1937 84.4931 51.3522 84.5887 51.5255 84.6478C51.6987 84.7068 51.8827 84.7278 52.0648 84.7093C52.2469 84.6909 52.4229 84.6334 52.5807 84.5408C52.7822 84.4194 52.9489 84.2481 53.0646 84.0433C53.1803 83.8385 53.2412 83.6073 53.2412 83.3721C53.2412 83.1369 53.1803 82.9057 53.0646 82.7009C52.9489 82.4961 52.7822 82.3247 52.5807 82.2034C52.8876 82.2457 53.1762 82.3744 53.4128 82.5744C53.6494 82.7743 53.8243 83.0374 53.9172 83.333C54.0101 83.6285 54.0171 83.9444 53.9374 84.2438C53.8578 84.5432 53.6947 84.8137 53.4672 85.024C53.2397 85.2343 52.9571 85.3756 52.6524 85.4316C52.3477 85.4875 52.0334 85.4557 51.746 85.3399C51.4587 85.2241 51.2101 85.029 51.0293 84.7774C50.8486 84.5259 50.743 84.2281 50.7249 83.9188H50.7549Z" fill="#EBEBEB"/>
<path d="M343.014 74.1478L335.259 69.6836L339.522 68.7808L343.766 71.7402L343.014 74.1478Z" fill="#E0E0E0"/>
<path d="M329.44 34.1908C329.44 22.1526 322.067 16.5648 313.008 21.7914L299.626 29.516C290.597 34.7426 283.203 48.8273 283.203 60.9057C283.203 61.3973 283.203 61.9089 283.203 62.3403C283.203 62.6111 283.203 62.8418 283.203 63.1027C283.203 63.3635 283.254 63.5742 283.274 63.8049C283.294 64.0356 283.334 64.3366 283.374 64.5974C283.576 66.023 283.932 67.4223 284.437 68.7707C284.648 69.2723 284.869 69.7739 285.11 70.1952C285.221 70.4279 285.348 70.6525 285.491 70.8674L285.621 71.078C285.844 71.4374 286.103 71.7735 286.394 72.0812C286.554 72.2618 286.705 72.4524 286.875 72.6229L287.397 73.1245C287.577 73.265 287.748 73.4355 287.939 73.576C288.119 73.7211 288.31 73.8519 288.51 73.9672L289.102 74.3083C289.869 74.7221 290.7 75.0036 291.56 75.1409C291.626 75.1248 291.695 75.1248 291.761 75.1409C291.991 75.1409 292.202 75.1911 292.433 75.1911C292.677 75.2112 292.921 75.2112 293.165 75.1911C293.81 75.1981 294.453 75.1274 295.081 74.9804C295.457 74.9057 295.829 74.812 296.195 74.6995C297.367 74.3404 298.492 73.8419 299.545 73.2148L312.928 65.4903C313.845 64.9577 314.723 64.361 315.556 63.7046C315.556 63.5441 315.556 63.4036 315.556 63.2532C315.556 63.1027 315.556 62.7817 315.556 62.6011C315.556 62.1998 315.556 61.7885 315.556 61.3772C315.526 51.1146 321.706 39.0061 329.44 34.1908Z" fill="#E0E0E0"/>
<path d="M331.698 25.5133L323.923 21.0391C323.973 21.0391 324.715 26.4462 324.715 26.4462L330.484 27.1284L331.698 25.5133Z" fill="#E0E0E0"/>
<path d="M295.773 78.0902L288.591 74.0173L292.914 72.1614L295.773 78.0902Z" fill="#E0E0E0"/>
<path d="M299.626 73.3352C299.575 76.3081 298.619 79.1949 296.887 81.6115C296.566 82.0328 297.058 82.404 297.419 82.2134C299.058 81.3625 300.511 80.1927 301.692 78.7724C303.961 76.0909 305.548 72.9003 306.317 69.4729L299.626 73.3352Z" fill="#E0E0E0"/>
<path d="M296.967 82.1934L304.742 86.6676C304.742 86.6676 309.106 82.986 309.106 75.5323L300.669 74.9604C300.669 74.9604 300.468 79.8159 296.967 82.1934Z" fill="#E0E0E0"/>
<path d="M317.673 60.2636C317.673 60.6382 317.673 60.9993 317.673 61.3471C317.673 61.5477 317.673 61.7183 317.673 61.9089C317.673 62.0995 317.673 62.26 317.733 62.4406C317.793 62.6211 317.733 62.8418 317.803 63.0425C317.92 63.9311 318.128 64.8053 318.425 65.6507C318.468 65.8048 318.522 65.9556 318.586 66.1022C318.659 66.3037 318.743 66.5013 318.837 66.6941C318.915 66.8805 319.005 67.0614 319.108 67.2358C319.187 67.4106 319.281 67.5784 319.388 67.7374L319.489 67.8979C319.666 68.1742 319.86 68.439 320.071 68.6904C320.18 68.8366 320.301 68.9742 320.432 69.1017L320.813 69.4729C320.943 69.5949 321.08 69.7088 321.224 69.814C321.362 69.9202 321.506 70.0174 321.656 70.1049C321.806 70.1952 321.947 70.2855 322.107 70.3657L322.569 70.5864L323.05 70.757C323.344 70.8459 323.642 70.9195 323.943 70.9777H324.093C324.26 70.993 324.428 70.993 324.595 70.9777C324.775 70.9981 324.957 70.9981 325.137 70.9777C325.568 70.9775 325.998 70.9338 326.421 70.8473C326.759 70.7898 327.094 70.7128 327.424 70.6165C328.305 70.3467 329.15 69.9728 329.942 69.503L339.974 63.7046C340.869 63.1881 341.712 62.5868 342.492 61.9089V61.9089C342.773 61.6681 343.054 61.4073 343.335 61.1464C343.84 60.6754 344.319 60.1763 344.769 59.6517L345.411 59.0698C345.582 58.8692 345.742 58.6585 345.913 58.4479C345.954 58.375 346.005 58.3076 346.063 58.2472C346.731 57.364 347.348 56.4429 347.909 55.4885C348.06 55.2377 348.2 54.9768 348.35 54.716C348.501 54.4552 348.641 54.1944 348.782 53.9235C348.922 53.6526 349.053 53.3818 349.193 53.1209L349.574 52.2983C349.705 52.0275 349.825 51.7365 349.946 51.4757C350.156 50.9942 350.347 50.4725 350.517 50.0111C350.517 49.9208 350.588 49.8305 350.618 49.7402C350.728 49.4593 350.818 49.1784 350.909 48.8975C351.089 48.3558 351.25 47.8141 351.41 47.2523C351.763 45.9338 352.028 44.5932 352.203 43.2395C352.203 43.0088 352.253 42.7881 352.283 42.5574C352.313 42.3266 352.283 42.1661 352.333 41.9655C352.383 41.7649 352.333 41.5642 352.333 41.3636C352.333 40.9891 352.333 40.6179 352.333 40.25C352.333 31.2214 346.806 26.9979 340.004 30.9204L329.972 36.7289C323.201 40.6313 317.673 51.1948 317.673 60.2636Z" fill="#E0E0E0"/>
<path d="M355.955 34.7727L348.24 30.3386L345.331 32.3952L354.33 37.8425L355.955 34.7727Z" fill="#E0E0E0"/>
<path d="M329.47 74.569L321.716 70.1048L327.795 68.2891L329.47 74.569Z" fill="#E0E0E0"/>
<path d="M338.519 64.6777C338.519 66.2828 340.526 68.4698 342.823 68.8811C343.134 68.9413 343.054 69.6234 342.682 69.8843C341.313 70.6279 339.734 70.8894 338.198 70.6266C337.201 70.5969 336.229 70.3025 335.383 69.7737C334.537 69.2449 333.847 68.5006 333.383 67.6171L338.519 64.6777Z" fill="#BA68C8"/>
<path d="M320.773 26.2558L307.38 33.9903C298.352 39.217 290.968 53.3017 290.968 65.37C290.968 65.8716 290.968 66.3732 290.968 66.8146C290.968 67.0855 290.968 67.3162 290.968 67.5771C290.968 67.8379 291.018 68.0385 291.048 68.2693C291.079 68.5 291.109 68.821 291.149 69.0718C291.33 70.4921 291.666 71.8882 292.152 73.235C292.363 73.7467 292.583 74.2382 292.824 74.6696C292.935 74.8993 293.062 75.1206 293.205 75.3317C293.247 75.4049 293.294 75.4753 293.346 75.5424C293.564 75.9215 293.819 76.2777 294.108 76.6057C294.269 76.7863 294.429 76.987 294.6 77.1475L295.111 77.6491C295.292 77.7895 295.472 77.9601 295.653 78.1005C295.835 78.2434 296.026 78.3741 296.225 78.4917L296.827 78.8328C297.591 79.245 298.418 79.5265 299.275 79.6655C299.34 79.6433 299.41 79.6433 299.475 79.6655C299.706 79.6655 299.927 79.6655 300.147 79.6655C300.391 79.6803 300.636 79.6803 300.88 79.6655C301.524 79.6682 302.167 79.5976 302.796 79.4548C303.171 79.3801 303.543 79.2863 303.909 79.1739V79.1739C305.079 78.8117 306.203 78.317 307.26 77.6992V77.6992C307.21 80.6709 306.251 83.5559 304.511 85.9655C304.19 86.3969 304.682 86.768 305.053 86.5774C306.695 85.7257 308.148 84.552 309.327 83.1265C311.589 80.4447 313.175 77.259 313.951 73.837L312.948 74.3887L320.602 69.9747C321.343 69.5478 322.057 69.0754 322.739 68.5602C322.68 68.3055 322.637 68.0476 322.609 67.7877C322.609 67.6172 322.549 67.3664 322.528 67.1056C322.492 66.8831 322.469 66.6586 322.458 66.4334V66.313C322.448 66.146 322.448 65.9785 322.458 65.8115C322.458 65.4302 322.458 65.029 322.458 64.6277C322.458 54.4754 328.477 43.0291 336.222 38.5448L337.075 38.0432C336.994 26.4363 329.701 21.0994 320.773 26.2558Z" fill="#F0F0F0"/>
<path d="M347.809 35.3646L337.777 41.1631C330.985 45.0956 325.448 55.6591 325.448 64.7279C325.448 65.0991 325.448 65.4603 325.448 65.8114C325.448 66.1625 325.448 66.1826 325.448 66.3732C325.448 66.5638 325.448 66.7243 325.498 66.9048C325.514 67.1034 325.541 67.301 325.578 67.4967C325.688 68.3897 325.897 69.2678 326.2 70.115C326.239 70.2705 326.292 70.4217 326.361 70.5665C326.429 70.7653 326.509 70.9596 326.601 71.1483C326.682 71.337 326.772 71.5212 326.872 71.7001C326.955 71.8751 327.052 72.0429 327.163 72.2017C327.187 72.2586 327.217 72.3125 327.253 72.3622C327.444 72.6431 327.635 72.9039 327.835 73.1547C327.951 73.2987 328.075 73.436 328.206 73.566L328.588 73.9372C328.718 74.0592 328.855 74.1731 328.999 74.2783C329.131 74.3866 329.272 74.4839 329.42 74.5692C329.571 74.6595 329.711 74.7498 329.872 74.83L330.333 75.0507L330.815 75.2213C331.108 75.3102 331.406 75.3838 331.708 75.442H331.858C332.025 75.4573 332.193 75.4573 332.36 75.442C332.543 75.4674 332.728 75.4674 332.911 75.442C333.342 75.4444 333.772 75.4041 334.195 75.3216C334.534 75.2634 334.869 75.1863 335.199 75.0909C336.081 74.8248 336.926 74.4508 337.717 73.9773L341.107 72.0311C341.578 72.9053 342.271 73.6394 343.117 74.1592C343.962 74.6789 344.93 74.9657 345.923 74.9905C347.46 75.2495 349.039 74.9845 350.407 74.2381C350.768 74.0074 350.858 73.3252 350.537 73.235C348.24 72.8237 346.244 70.6367 346.244 69.0316L347.769 68.1488C348.662 67.6299 349.505 67.0288 350.287 66.3531V66.3531C350.567 66.1123 350.848 65.8515 351.119 65.5907C351.628 65.1197 352.111 64.6207 352.564 64.0959C352.744 63.8853 352.925 63.6846 353.106 63.4439C353.286 63.2031 353.437 63.0426 353.607 62.8319L353.758 62.6313C354.426 61.7481 355.042 60.8269 355.604 59.8725L356.055 59.1C356.205 58.8392 356.346 58.5784 356.486 58.3075C356.627 58.0367 356.747 57.7658 356.888 57.505L357.279 56.6824C357.409 56.4015 357.52 56.1206 357.64 55.8598C357.851 55.3782 358.051 54.8566 358.222 54.3951L358.312 54.1242C358.422 53.8433 358.523 53.5625 358.603 53.2816C358.794 52.7298 358.944 52.1981 359.115 51.6363C359.468 50.3178 359.732 48.9773 359.907 47.6236C359.907 47.3929 359.957 47.1722 359.977 46.9414C359.997 46.7107 359.977 46.5401 360.028 46.3495C360.078 46.1589 360.028 45.9483 360.028 45.7476C360.028 45.3764 360.028 44.9952 360.028 44.6241C360.138 35.6255 354.6 31.4422 347.809 35.3646Z" fill="#F0F0F0"/>
<path d="M267.213 168.066C263.421 166.883 259.528 169.952 256.98 176.152C254.432 182.352 249.085 198.122 248.293 202.325C247.5 206.529 265.437 215.678 264.935 215.437C264.434 215.196 267.213 168.066 267.213 168.066Z" fill="#263238"/>
<path d="M258.876 313.99C258.334 314.191 258.204 315.214 258.124 317.24C258.064 318.775 257.733 321.454 259.528 321.985C261.324 322.517 263.962 322.246 265.116 320.802C266.551 318.996 267.524 317.411 269.57 315.204C271.356 313.298 273.272 311.512 273.994 308.834C274.646 306.406 274.105 305.362 272.449 304.66C270.182 303.657 266.611 306.847 264.835 307.349C263.3 307.78 259.408 313.789 258.876 313.99Z" fill="#263238"/>
<path d="M258.876 312.114V314.602C259.81 315.199 260.889 315.531 261.998 315.561C263.106 315.591 264.201 315.318 265.166 314.773C265.277 314.532 265.818 311.211 265.818 311.211L258.876 312.114Z" fill="#FFA8A7"/>
<path d="M279.03 328.335C279.03 328.335 278.318 330.502 277.937 332.348C277.626 333.853 277.194 336.361 277.716 337.505C278.238 338.648 280.304 339.371 283.484 339.34C285.551 339.34 288.771 340.735 290.968 341.959C293.165 343.183 297.99 343.734 300.388 343.453C303.217 343.122 306.156 341.447 306.618 340.303C307.079 339.16 306.467 337.906 299.786 335.057C299.726 335.057 290.497 332.047 287.256 328.466L279.03 328.335Z" fill="#263238"/>
<path d="M279.03 325.647C279.03 325.647 279.03 327.493 279.03 328.546C279.03 329.6 280.274 331.175 283.504 331.064C285.772 330.984 287.347 330.372 287.256 328.506V325.807L279.03 325.647Z" fill="#FFA8A7"/>
<path d="M257.251 279.079C257.806 274.67 258.79 270.325 260.19 266.108C260.19 266.108 259.308 254.922 258.876 244.319C258.415 232.862 258.876 218.456 258.686 215.607C258.686 215.607 295.653 208.124 296.315 221.366C296.977 234.608 294.851 268.315 294.419 274.133C293.988 279.952 292.975 285.098 291.771 294.528C290.567 303.958 287.256 325.807 287.256 325.807C285.978 326.459 284.558 326.785 283.123 326.757C281.688 326.729 280.282 326.348 279.03 325.647C279.03 325.647 276.432 299.163 276.703 292.451C276.914 287.466 277.771 282.53 279.251 277.765L277.937 257.35C277.315 247.85 276.663 243.305 276.512 239.162L275.72 238.761C275.72 238.761 274.907 255.153 274.476 260.971C274.044 266.79 273.111 272.368 271.466 283.172C270.002 292.542 265.658 312.375 265.658 312.375C261.434 314.662 258.916 312.084 258.916 312.084C258.916 312.084 256.127 287.205 257.251 279.079Z" fill="#455A64"/>
<path d="M276.512 239.192C276.512 239.192 267.544 234.768 263.06 230.786C263.06 230.786 267.223 236.654 272.7 239.263C272.7 239.263 274.646 259.617 274.636 259.216L275.76 239.152L276.512 239.192Z" fill="#37474F"/>
<path d="M284.498 163.873L282.311 175.911L271.436 175.119L273.713 161.465L284.498 163.873Z" fill="#FFA8A7"/>
<path d="M259.95 174.236C261.023 170.966 265.176 167.404 269.329 168.217C275.506 169.262 281.594 170.781 287.537 172.761C291.339 174.116 294.8 177.406 295.121 189.926L297.047 227.204L292.443 228.207L290.838 219.761L290.095 228.207C285.28 229.411 276.924 228.418 271.436 227.204C260 224.706 258.625 219.961 258.625 219.961C258.625 219.961 258.475 198.985 258.816 189.926C259.137 182.181 259.207 176.443 259.95 174.236Z" fill="#37474F"/>
<path d="M292.543 149.608C292.543 149.608 295.182 153.51 294.841 153.921C294.231 154.332 293.551 154.628 292.834 154.794L292.543 149.608Z" fill="#FFA8A7"/>
<path d="M284.498 137.248C287.036 138.532 291.42 140.9 292.623 150.179C293.867 159.71 292.232 162.779 290.948 164.043C290.075 164.896 285.34 164.946 282.973 164.234C279.963 163.341 273.322 160.803 270.272 155.908C266.681 150.149 265.878 142.435 269.931 139.365C275.619 135.051 282.351 136.165 284.498 137.248Z" fill="#FFA8A7"/>
<path d="M293.155 140.438C292.323 142.726 290.918 148.323 285.079 150.661C285.079 150.661 284.247 147.09 281.247 147.471C278.248 147.852 277.736 151.674 279.582 154.052C281.428 156.429 283.214 155.567 283.214 155.567C283.214 155.567 283.615 160.683 280.204 163C280.204 163 276.081 165.608 271.717 163.602C269.711 162.699 266.972 157.994 265.347 154.132C261.896 145.966 261.404 139.415 266.611 137.349C267.253 133.637 268.928 132.242 272.289 131.55C279.522 130.055 284.989 134.811 291.069 133.978C294.249 133.537 294.108 137.83 293.155 140.438Z" fill="#37474F"/>
<path d="M266.49 138.593L263.08 136.486C263.212 136.25 263.39 136.042 263.605 135.877C263.819 135.712 264.065 135.591 264.327 135.523C264.589 135.455 264.862 135.441 265.13 135.481C265.398 135.522 265.655 135.616 265.885 135.758C266.115 135.901 266.315 136.088 266.471 136.309C266.627 136.531 266.736 136.781 266.793 137.046C266.849 137.311 266.852 137.585 266.8 137.85C266.748 138.116 266.643 138.369 266.49 138.593V138.593Z" fill="#37474F"/>
<path d="M283.695 168.257L284.939 171.858C284.939 171.858 284.026 173.464 280.144 173.544C276.261 173.624 272.118 172.39 270.834 170.735C270.542 170.411 270.325 170.026 270.2 169.607C270.076 169.189 270.045 168.749 270.112 168.317C270.112 168.317 271.657 164.906 273.121 165.057L272.881 166.542C272.881 166.542 273.212 167.755 276.733 168.688C282.21 170.143 283.695 168.257 283.695 168.257Z" fill="#455A64"/>
<path d="M314.894 192.193C316.459 190.397 317.061 186.415 319.148 183.686C321.234 180.957 322.007 178.961 322.829 180.155C323.923 181.73 321.455 184.89 322.007 185.171C322.559 185.452 324.595 189.645 324.806 191.952C325.016 194.26 318.897 200.078 318.897 200.078L314.894 192.193Z" fill="#FFA8A7"/>
<path d="M283.695 168.257C283.947 168.252 284.196 168.315 284.416 168.441C284.635 168.566 284.816 168.749 284.939 168.969C285.553 170.077 286.102 171.219 286.584 172.39L284.939 171.858L283.695 168.257Z" fill="#455A64"/>
<path d="M321.836 184.85C321.836 184.85 329.23 184.208 330.303 184.85C331.377 185.492 331.056 188.692 330.303 190.658C329.551 192.624 325.779 193.899 322.278 196.266C322.278 195.905 321.836 184.85 321.836 184.85Z" fill="#FFA8A7"/>
<path d="M286.584 172.43C289.764 173.544 292.543 174.818 295.513 180.395C299.325 187.558 306.548 199.015 306.548 199.015L314.864 191.681C314.864 191.681 316.118 190.467 318.456 194.33C319.14 195.369 319.574 196.554 319.722 197.79C319.87 199.027 319.728 200.28 319.308 201.452C319.308 201.452 309.708 212.718 307.872 214.434C306.036 216.149 302.996 214.815 301.02 212.116C299.044 209.418 286.554 193.818 286.554 193.818C286.554 193.818 279.773 184.81 286.584 172.43Z" fill="#37474F"/>
<path d="M372.367 153.701H348.682C347.788 153.701 346.93 153.346 346.298 152.713C345.666 152.081 345.311 151.224 345.311 150.33V112.7C345.311 109.739 346.487 106.899 348.581 104.805C350.675 102.711 353.515 101.535 356.476 101.535H364.602C367.558 101.543 370.39 102.723 372.478 104.816C374.565 106.909 375.738 109.744 375.738 112.7V150.33C375.738 151.224 375.382 152.081 374.75 152.713C374.118 153.346 373.261 153.701 372.367 153.701Z" fill="#B66B27"/>
<path d="M344.689 140.86C342.392 147.631 338.539 167.113 338.539 167.113C338.539 167.113 330.514 176.924 327.896 179.302C326.461 180.626 323.231 183.004 323.231 183.004L329.099 187.317C334.398 183.242 339.375 178.764 343.987 173.925C345.012 172.833 345.732 171.491 346.073 170.032L350.086 152.818C350.086 152.818 350.086 138.974 352.203 137.158C354.319 135.342 354.931 134.961 354.931 134.961C352.213 134.76 346.495 135.533 344.689 140.86Z" fill="#F28F8F"/>
<path d="M356.185 134.76C352.443 134.329 347.648 134.409 345.311 138.593C342.973 142.776 339.081 164.405 339.081 164.405C339.081 164.405 342.763 167.264 346.735 167.214L356.185 134.76Z" fill="#F0FC66"/>
<path d="M345.782 154.915C346.456 158.139 346.716 161.436 346.555 164.726C346.264 169.06 343.274 176.624 343.274 176.624C343.274 176.624 345.612 179.192 352.203 178.158C357.57 177.326 355.674 161.104 352.594 157.994C350.798 156.139 348.362 155.037 345.782 154.915V154.915Z" fill="#BA68C8"/>
<path opacity="0.3" d="M345.782 154.915C346.456 158.139 346.716 161.436 346.555 164.726C346.264 169.06 343.274 176.624 343.274 176.624C343.274 176.624 345.612 179.192 352.203 178.158C357.57 177.326 355.674 161.104 352.594 157.994C350.798 156.139 348.362 155.037 345.782 154.915V154.915Z" fill="black"/>
<path d="M358.182 269.478C358.224 270.218 358.039 270.954 357.65 271.585C356.658 273.225 355.491 274.752 354.169 276.14C352.313 278.146 349.534 280.503 347.538 282.239C346.434 283.242 346.394 284.667 347.979 285.178C350.934 285.898 354.051 285.464 356.697 283.964C358.703 282.901 361.492 277.945 363.137 277.243C365.034 276.39 366.087 275.969 366.729 275.096C367.214 274.6 367.517 273.954 367.588 273.264C367.659 272.573 367.494 271.879 367.12 271.294C366.227 269.629 364.883 267.071 364.331 267.362L364.502 267.883C364.07 269.238 360.379 270.813 358.483 270.441L358.182 269.478Z" fill="#37474F"/>
<path d="M377.513 212.879C378.366 203.85 380.814 189.324 378.306 178.57L345 180.335C344.077 190.939 342.993 224.044 344.157 227.836C345.501 232.31 357.51 263.279 358.202 269.509C358.249 270.24 358.063 270.967 357.67 271.585C356.679 273.229 355.512 274.759 354.189 276.15C353.286 277.153 352.183 278.156 351.019 279.159C350.921 279.302 350.863 279.468 350.848 279.641C350.848 280.644 353.376 280.955 354.861 280.524C356.713 279.87 358.308 278.644 359.416 277.022C360.268 275.889 362.184 273.712 363.428 272.077C363.843 271.572 364.197 271.02 364.482 270.431C364.814 269.697 364.871 268.867 364.642 268.094L364.562 267.843C363.911 265.812 363.507 263.711 363.358 261.583C362.897 254.752 361.723 238.972 360.639 234.768C359.887 231.705 358.744 228.752 357.239 225.98L361.041 196.396C361.041 196.396 361.442 222.479 362.626 229.13C363.559 234.457 363.92 241.118 365.013 250.257C366.017 259.005 367.18 274.414 367.18 274.414C367.21 274.42 367.241 274.42 367.271 274.414V281.777H373.5V277.504C373.5 275.574 373.661 273.648 373.982 271.746C374.985 265.927 377.072 252.615 377.503 248.111C378.185 240.968 375.607 231.989 375.607 231.989C375.607 231.989 376.68 221.687 377.513 212.879Z" fill="#FFA8A7"/>
<path d="M365.776 135.071C365.776 135.071 374.734 136.075 375.808 136.586C367.401 142.495 374.213 155.647 374.213 155.647L370.992 165.749C374.574 170.333 377.664 173.062 379.58 178.088C381.706 183.706 383.592 192.063 383.091 209.187C375.065 215.206 350.648 214.554 341.138 209.187C341.138 209.187 342.743 194.069 344.639 182.322C345.893 174.567 348.852 166.12 348.35 163.261C344.579 151.664 344.338 149.578 345.02 146.989C346.896 139.706 354.319 134.781 356.145 134.781L365.776 135.071Z" fill="#263238"/>
<path d="M367.21 278.658V277.765C366.428 280.765 364.863 283.503 362.676 285.7C360.67 287.516 357.961 289.623 357.259 291.659C356.557 293.696 360.479 294.609 363.067 294.348C365.575 294.041 367.886 292.832 369.568 290.947C371.213 289.061 371.183 287.777 371.945 286.734C372.708 285.69 374.483 284.547 374.895 283.343C375.023 282.219 374.9 281.082 374.534 280.012C374.243 278.899 373.922 277.665 373.53 277.765V278.457C372.628 279.167 371.509 279.546 370.36 279.531C369.488 279.551 367.2 279.36 367.21 278.658Z" fill="#37474F"/>
<path d="M373.5 278.437C372.598 279.147 371.479 279.526 370.33 279.51C369.407 279.51 367.16 279.36 367.17 278.658V277.765C366.388 280.765 364.823 283.503 362.636 285.7L361.121 287.054C360.058 288.238 360.359 289.271 362.857 289.482C365.354 289.693 367.551 288.188 369.437 285.871C371.045 283.54 372.407 281.049 373.5 278.437V278.437Z" fill="#FFA8A7"/>
<path d="M350.307 107.685C348.702 108.638 346.715 112.701 346.906 121.147C347.076 128.33 349.404 130.106 350.578 130.617C351.751 131.129 353.998 130.818 356.185 130.457V134.761C356.185 134.761 353.176 138.282 353.346 140.258C353.517 142.234 357.72 142.696 360.559 140.77C362.609 139.18 364.373 137.253 365.776 135.072L365.726 125.17C365.726 125.17 367.02 126.414 369.207 124.508C371.012 122.933 371.614 120.265 370.21 118.84C369.845 118.497 369.404 118.246 368.923 118.109C368.441 117.971 367.934 117.951 367.443 118.049C366.953 118.147 366.492 118.361 366.101 118.673C365.71 118.985 365.399 119.386 365.194 119.843C365.194 119.843 363.98 116.462 358.934 114.827C354.38 113.312 351.902 111.597 350.307 107.685Z" fill="#FFA8A7"/>
<path d="M354.931 119.352C354.932 119.528 354.984 119.701 355.081 119.849C355.179 119.996 355.317 120.112 355.48 120.181C355.643 120.251 355.822 120.271 355.996 120.239C356.17 120.207 356.331 120.125 356.459 120.003C356.586 119.881 356.675 119.723 356.715 119.551C356.754 119.379 356.742 119.198 356.679 119.033C356.617 118.867 356.508 118.724 356.365 118.62C356.221 118.516 356.051 118.457 355.874 118.449C355.753 118.446 355.633 118.467 355.52 118.511C355.407 118.555 355.303 118.621 355.216 118.705C355.128 118.789 355.058 118.889 355.009 119C354.96 119.111 354.934 119.23 354.931 119.352V119.352Z" fill="#37474F"/>
<path d="M354.691 125.431L352.594 126.103C352.631 126.243 352.696 126.374 352.784 126.488C352.873 126.603 352.984 126.698 353.111 126.768C353.237 126.838 353.377 126.882 353.521 126.897C353.665 126.912 353.81 126.898 353.948 126.855C354.231 126.759 354.466 126.557 354.605 126.292C354.743 126.027 354.774 125.718 354.691 125.431V125.431Z" fill="#F28F8F"/>
<path d="M347.528 116.573L349.354 115.309C349.276 115.185 349.175 115.079 349.055 114.996C348.936 114.913 348.801 114.855 348.658 114.826C348.515 114.797 348.368 114.797 348.226 114.827C348.083 114.856 347.948 114.914 347.829 114.998C347.584 115.17 347.416 115.43 347.36 115.724C347.304 116.018 347.364 116.322 347.528 116.573V116.573Z" fill="#37474F"/>
<path d="M357.56 117.255L355.724 115.991C355.801 115.868 355.903 115.761 356.022 115.678C356.141 115.595 356.276 115.537 356.418 115.507C356.561 115.477 356.707 115.476 356.85 115.504C356.993 115.532 357.128 115.588 357.249 115.67C357.492 115.846 357.659 116.107 357.717 116.401C357.774 116.695 357.718 117 357.56 117.255V117.255Z" fill="#37474F"/>
<path d="M347.949 118.689C347.947 118.867 347.998 119.041 348.094 119.189C348.191 119.338 348.329 119.455 348.491 119.526C348.653 119.597 348.833 119.619 349.008 119.588C349.182 119.557 349.344 119.476 349.473 119.354C349.601 119.232 349.691 119.075 349.732 118.903C349.772 118.73 349.76 118.549 349.698 118.383C349.636 118.217 349.527 118.073 349.383 117.969C349.24 117.864 349.069 117.805 348.892 117.797C348.649 117.791 348.414 117.882 348.237 118.049C348.061 118.216 347.957 118.446 347.949 118.689V118.689Z" fill="#37474F"/>
<path d="M352.203 118.178L352.062 123.615L349.203 122.732L352.203 118.178Z" fill="#F28F8F"/>
<path d="M356.185 130.457C358.493 130.146 363.208 128.781 363.99 126.906C363.692 127.856 363.111 128.692 362.325 129.303C360.9 130.517 356.185 131.891 356.185 131.891V130.457Z" fill="#F28F8F"/>
<path d="M372.547 160.241L366.217 168.809L370.992 165.749L372.547 160.241Z" fill="#BA68C8"/>
<path d="M322.679 183.004C321.325 184.749 320.492 188.14 319.78 189.284C319.067 190.427 318.215 191.421 319.78 191.631C321.345 191.842 323.632 188.782 324.485 186.926C324.917 185.88 325.731 185.037 326.762 184.569C326.03 184.318 326.411 181.379 325.899 180.967C325.899 180.967 323.231 182.061 322.679 183.004Z" fill="#F28F8F"/>
<path d="M322.278 196.246C323.692 195.193 323.742 193.898 324.013 191.842C324.284 189.785 329.952 187.558 330.133 189.093C330.313 190.628 330.825 191.912 329.129 193.778C327.434 195.644 324.866 197.63 322.278 196.246Z" fill="#F28F8F"/>
<path d="M365.776 135.072C365.776 135.072 374.163 135.804 375.808 136.586C377.453 137.369 380.192 142.104 377.744 148.976C375.296 155.848 373.069 163.933 373.32 165.558C373.571 167.184 379.419 175.59 379.419 175.59C377.806 176.781 375.981 177.656 374.042 178.168L371.033 171.628L371.735 178.58C368.712 179.315 365.606 179.652 362.495 179.583C362.495 179.583 359.656 152.878 365.776 135.072Z" fill="#F0FC66"/>
<path d="M386.441 167.826C387.114 163.873 386.441 162.579 385.057 158.707L378.035 163.251C378.611 164.713 378.949 166.257 379.038 167.826C378.978 168.969 377.423 180.305 375.968 184.258C375.706 184.961 375.191 185.54 374.524 185.883C373.077 186.766 371.766 187.854 370.631 189.113C369.558 190.116 368.695 190.297 368.805 190.638C368.971 191.008 369.268 191.303 369.638 191.468C370.008 191.633 370.426 191.655 370.812 191.531C371.686 191.247 372.524 190.863 373.31 190.387C372.613 191.863 371.685 193.217 370.561 194.4C367.983 197.149 367.752 198.934 372.567 199.306C375.577 199.536 378.095 197.851 380.814 191.38C381.656 189.008 382.35 186.586 382.89 184.127C384.355 178.519 385.779 171.808 386.441 167.826Z" fill="#FFA8A7"/>
<path d="M375.808 136.586C379.188 138.101 380.152 141.091 381.406 145.485C382.659 149.879 386.592 163.061 386.592 163.061C386.592 163.061 383.221 167.073 378.566 165.95L372.547 151.333C372.547 151.333 369.738 141.793 375.808 136.586Z" fill="#F0FC66"/>
</svg>
