<svg width="54" height="11" viewBox="0 0 54 11" fill="none" xmlns="http://www.w3.org/2000/svg">
<path d="M5.5 0L6.73483 3.80041H10.7308L7.49799 6.14919L8.73282 9.94959L5.5 7.60081L2.26718 9.94959L3.50201 6.14919L0.269189 3.80041H4.26517L5.5 0Z" fill="#4DEF7A"/>
<path d="M16.5 0L17.7348 3.80041H21.7308L18.498 6.14919L19.7328 9.94959L16.5 7.60081L13.2672 9.94959L14.502 6.14919L11.2692 3.80041H15.2652L16.5 0Z" fill="#4DEF7A"/>
<path d="M27 0L28.1226 3.80041H31.7553L28.8164 6.14919L29.9389 9.94959L27 7.60081L24.0611 9.94959L25.1836 6.14919L22.2447 3.80041H25.8774L27 0Z" fill="#4DEF7A"/>
<path d="M37.5 0L38.7348 3.80041H42.7308L39.498 6.14919L40.7328 9.94959L37.5 7.60081L34.2672 9.94959L35.502 6.14919L32.2692 3.80041H36.2652L37.5 0Z" fill="#4DEF7A"/>
<path d="M48.5 0.809018L49.4971 3.87766L49.5532 4.05041H49.7348H52.9614L50.351 5.94693L50.2041 6.0537L50.2602 6.22644L51.2573 9.29508L48.6469 7.39856L48.5 7.2918L48.3531 7.39856L45.7427 9.29508L46.7398 6.22644L46.7959 6.0537L46.649 5.94693L44.0386 4.05041H47.2652H47.4468L47.5029 3.87766L48.5 0.809018Z" stroke="#4DEF7A" stroke-width="0.5"/>
</svg>
